<?xml version="1.0" encoding="UTF-8"?>
<svg xmlns="http://www.w3.org/2000/svg" width="26" height="26" viewBox="0 0 26 26" fill="none">
  <path fill-rule="evenodd" clip-rule="evenodd" d="M10.6 3.85711C10.1897 3.85711 9.85711 4.1897 9.85711 4.59997V5.39997C9.85711 5.81023 10.1897 6.14282 10.6 6.14282H15.4C15.8102 6.14282 16.1428 5.81023 16.1428 5.39997V4.59997C16.1428 4.1897 15.8102 3.85711 15.4 3.85711H10.6ZM8.14282 4.59997C8.14282 3.24292 9.24292 2.14282 10.6 2.14282H15.4C16.757 2.14282 17.8571 3.24292 17.8571 4.59997V5.39997C17.8571 6.75701 16.757 7.85711 15.4 7.85711H10.6C9.24292 7.85711 8.14282 6.75701 8.14282 5.39997V4.59997Z" fill="#3E4567"></path>
  <path fill-rule="evenodd" clip-rule="evenodd" d="M13 16.75C11.2319 16.75 9.75 18.2499 9.75 20.1611V20.25H16.4592C16.368 18.8176 15.5467 17.8853 15.1626 17.6083C15.1417 17.5932 15.1215 17.577 15.1022 17.5598C14.5325 17.052 13.7991 16.75 13 16.75ZM17.9619 20.25H19C19.4142 20.25 19.75 20.5858 19.75 21C19.75 21.4142 19.4142 21.75 19 21.75H9.09492C8.57301 21.75 8.25 21.3121 8.25 20.9001V20.1611C8.25 17.4784 10.3477 15.25 13 15.25C14.1746 15.25 15.2475 15.6914 16.0726 16.4156C16.7645 16.9312 17.8722 18.2773 17.9619 20.25Z" fill="#3E4567"></path>
  <path fill-rule="evenodd" clip-rule="evenodd" d="M10.25 14C10.25 12.479 11.479 11.25 13 11.25C14.521 11.25 15.75 12.479 15.75 14C15.75 15.521 14.521 16.75 13 16.75C11.479 16.75 10.25 15.521 10.25 14ZM13 12.75C12.3074 12.75 11.75 13.3074 11.75 14C11.75 14.6926 12.3074 15.25 13 15.25C13.6926 15.25 14.25 14.6926 14.25 14C14.25 13.3074 13.6926 12.75 13 12.75Z" fill="#3E4567"></path>
  <path fill-rule="evenodd" clip-rule="evenodd" d="M5 5.75C4.63989 5.75 4.31073 5.87685 4.08149 6.07875C3.85531 6.27795 3.75 6.52617 3.75 6.76147L3.75 19.2385C3.75 19.4738 3.85531 19.722 4.08149 19.9212C4.31073 20.1232 4.63989 20.25 5 20.25L21 20.25C21.3601 20.25 21.6893 20.1232 21.9185 19.9212C22.1447 19.722 22.25 19.4738 22.25 19.2385L22.25 6.76147C22.25 6.52617 22.1447 6.27795 21.9185 6.07875C21.6893 5.87685 21.3601 5.75 21 5.75L18 5.75C17.5858 5.75 17.25 5.41421 17.25 5C17.25 4.58579 17.5858 4.25 18 4.25H21C21.7008 4.25 22.389 4.49432 22.9099 4.95309C23.4339 5.41457 23.75 6.06242 23.75 6.76147L23.75 19.2385C23.75 19.9376 23.4339 20.5854 22.9099 21.0469C22.389 21.5057 21.7008 21.75 21 21.75L5 21.75C4.29924 21.75 3.61098 21.5057 3.09008 21.0469C2.56611 20.5854 2.25 19.9376 2.25 19.2385L2.25 6.76147C2.25 6.06243 2.56611 5.41457 3.09008 4.95309C3.61098 4.49432 4.29924 4.25 5 4.25L8 4.25C8.41421 4.25 8.75 4.58579 8.75 5C8.75 5.41421 8.41421 5.75 8 5.75L5 5.75Z" fill="#3E4567"></path>
</svg>
