<?xml version="1.0" encoding="UTF-8"?>
<svg xmlns="http://www.w3.org/2000/svg" id="a" viewBox="0 0 30 30">
  <defs>
    <style>.b{fill:#3E4567;}</style>
  </defs>
  <path class="b" d="M13.48,3.22c-2.84,0-5.14,2.28-5.14,5.1s2.3,5.11,5.14,5.11,5.15-2.28,5.15-5.11-2.3-5.1-5.15-5.1Zm0,8.93c-2.12,0-3.85-1.72-3.85-3.83s1.73-3.83,3.85-3.83,3.86,1.72,3.86,3.83-1.73,3.83-3.86,3.83Zm7.57,4.29c-.98-1.07-2.4-1.73-3.97-1.73-1.15,0-1.7,.64-3.6,.64s-2.44-.64-3.6-.64c-2.98,0-5.4,2.4-5.4,5.36v1.66c0,1.06,.87,1.92,1.93,1.92h10.73c-.25-.39-.43-.82-.52-1.28H6.4c-.35,0-.64-.29-.64-.64v-1.66c0-2.25,1.84-4.08,4.11-4.08,.79,0,1.58,.63,3.6,.63s2.82-.63,3.6-.63c.74,0,1.43,.19,2.03,.54,.56,.3,1.03,.74,1.39,1.26,.6,.02,1.17,.18,1.66,.46-.24-.68-.62-1.29-1.11-1.81Z" style="#3E4567"></path>
  <path class="b" d="M21.39,19.93l-1.14,1.56-.43-.59c-.18-.26-.51-.28-.71-.03-.2,.23-.22,.64-.02,.89l.79,1.07c.1,.13,.22,.2,.37,.2s.29-.08,.37-.2l1.53-2.05c.18-.26,.18-.66-.02-.89-.22-.26-.55-.26-.73,.03h0Z" style="#3E4567"></path>
  <path class="b" d="M21.04,16.44c-.23-.04-.47-.06-.72-.06-.42,0-.83,.05-1.22,.15-2.28,.54-3.98,2.6-3.98,5.05,0,.27,.02,.54,.07,.79,.06,.45,.18,.88,.36,1.28,.8,1.84,2.63,3.13,4.77,3.13,2.87,0,5.2-2.33,5.2-5.2,0-2.63-1.95-4.8-4.48-5.14Zm-.72,8.94c-1.34,0-2.51-.69-3.19-1.73-.25-.39-.43-.82-.52-1.28-.06-.26-.09-.52-.09-.79,0-2.1,1.7-3.8,3.8-3.8,.06,0,.11,0,.17,0,.6,.02,1.17,.18,1.66,.46,1.18,.65,1.97,1.89,1.97,3.33,0,2.1-1.7,3.8-3.8,3.8Z" style="#3E4567"></path>
</svg>
