<?xml version="1.0" encoding="UTF-8"?>
<svg xmlns="http://www.w3.org/2000/svg" id="a" viewBox="0 0 30 30">
  <defs>
    <style>.b{fill:#3E4567;}</style>
  </defs>
  <path class="b" d="M23.21,10.32c-.1-.1-.23-.15-.37-.15h-2.58v-2.76c0-.14-.06-.27-.16-.37-.1-.1-.24-.15-.37-.15H7.17c-.29,0-.53,.24-.53,.53v8.74c0,.14,.06,.28,.15,.37,.1,.1,.23,.15,.37,.15h2.58v2.76c0,.14,.06,.28,.16,.37s.24,.15,.37,.15h5.42l2.73,3c.1,.11,.24,.17,.39,.17,.25,0,.46-.17,.52-.41l.64-2.76h2.86c.29,0,.53-.23,.53-.52V10.69c0-.14-.06-.28-.15-.37Zm-.9,.9v7.68h-2.75c-.25,0-.46,.17-.52,.41l-.5,2.19-2.2-2.43c-.1-.11-.24-.17-.39-.17h-5.13v-7.68h11.49Zm-3.11-3.29v2.23H10.28c-.14,0-.28,.06-.37,.16-.1,.1-.16,.24-.15,.38v4.92h-2.06V7.93h11.49Z"></path>
  <rect class="b" x="12.42" y="13.46" width="5.39" height="1.06"></rect>
  <rect class="b" x="12.42" y="15.68" width="8.42" height="1.06"></rect>
</svg>
