<?xml version="1.0" encoding="UTF-8"?>
<svg xmlns="http://www.w3.org/2000/svg" id="a" viewBox="0 0 30 30">
  <defs>
    <style>.b{fill:#3E4567;}</style>
  </defs>
  <g>
    <path class="b" d="M13.24,9.87l-.43-.39c-.17-.15-.43-.15-.59,0l-2.89,2.63-1.29-1.17c-.16-.15-.43-.15-.59,0l-.43,.39c-.09,.08-.14,.19-.14,.3s.05,.22,.14,.3l2.02,1.82c.08,.07,.19,.11,.3,.11s.21-.04,.3-.11l3.62-3.29c.09-.08,.14-.19,.14-.3s-.05-.22-.14-.3Z"></path>
    <path class="b" d="M7.33,15.83c-.27,.28-.27,.73,0,1.01l1.39,1.2-1.26,1.36c-.27,.28-.27,.73,0,1.01,.27,.28,.71,.28,.97,0l1.26-1.36,1.26,1.36c.27,.28,.7,.28,.97,0,.27-.28,.27-.73,0-1.01l-1.26-1.36,1.09-1.2c.27-.28,.27-.73,0-1.01-.27-.28-.7-.28-.97,0l-1.09,1.2-1.39-1.2c-.27-.28-.7-.28-.97,0Z"></path>
    <rect class="b" x="15.13" y="11.62" width="8" height="1.4"></rect>
    <rect class="b" x="15.13" y="17.62" width="8" height="1.4"></rect>
  </g>
  <path class="b" d="M23.65,24.15H6.35c-1.65,0-3-1.34-3-3V8.85c0-1.65,1.34-3,3-3H23.65c1.65,0,3,1.34,3,3v12.31c0,1.65-1.34,3-3,3ZM6.35,7.15c-.94,0-1.7,.76-1.7,1.7v12.31c0,.94,.76,1.7,1.7,1.7H23.65c.93,0,1.7-.76,1.7-1.7V8.85c0-.94-.76-1.7-1.7-1.7H6.35Z"></path>
</svg>
