<?xml version="1.0" encoding="UTF-8"?>
<svg xmlns="http://www.w3.org/2000/svg" width="27" height="27" viewBox="0 0 27 27" fill="none">
  <path fill-rule="evenodd" clip-rule="evenodd" d="M25.6725 17.3657C25.9332 17.2208 26.059 16.9227 25.9733 16.6449C25.6679 15.6556 25.1244 14.765 24.4067 14.0346C24.1988 13.8231 23.8671 13.7768 23.6052 13.9224L22.7186 14.415C22.3639 14.1552 21.9766 13.9397 21.5658 13.7734V12.7876C21.5658 12.4959 21.3574 12.2423 21.0625 12.1751C20.0375 11.9416 18.9627 11.9416 17.9375 12.1751C17.6426 12.2423 17.4342 12.4958 17.4342 12.7876V13.7734C17.0234 13.9397 16.6361 14.1552 16.2814 14.415L15.3948 13.9224C15.1329 13.7768 14.8011 13.8231 14.5933 14.0346C13.8756 14.765 13.3321 15.6556 13.0267 16.6449C12.941 16.9227 13.0668 17.2208 13.3275 17.3657L14.2154 17.8592C14.1596 18.2847 14.1596 18.7153 14.2154 19.1408L13.3275 19.6343C13.0668 19.7792 12.941 20.0773 13.0267 20.3551C13.3321 21.3444 13.8756 22.235 14.5933 22.9654C14.8012 23.1769 15.1329 23.2232 15.3948 23.0777L16.2814 22.585C16.6361 22.8448 17.0234 23.0604 17.4342 23.2266V24.2124C17.4342 24.5041 17.6426 24.7577 17.9375 24.8249C18.9625 25.0584 20.0373 25.0584 21.0625 24.8249C21.3574 24.7577 21.5658 24.5042 21.5658 24.2124V23.2266C21.9766 23.0603 22.3639 22.8448 22.7186 22.585L23.6052 23.0777C23.8671 23.2232 24.1988 23.177 24.4067 22.9654C25.1244 22.235 25.6679 21.3444 25.9733 20.3551C26.059 20.0773 25.9332 19.7792 25.6725 19.6343L24.7846 19.1408C24.8404 18.7153 24.8404 18.2847 24.7846 17.8592L25.6725 17.3657ZM15.2521 21.4409L16.3927 20.8071L17.1679 21.3749C17.4216 21.5608 17.7 21.716 17.9968 21.8361L18.9342 22.2153V23.4712C19.3101 23.5096 19.6899 23.5096 20.0658 23.4712V22.2154L21.0031 21.8361C21.2999 21.716 21.5784 21.5608 21.8322 21.3749L22.6073 20.8071L23.7479 21.4409C23.9547 21.1709 24.1331 20.8813 24.2796 20.5763L23.1647 19.9567L23.2973 18.9457C23.3362 18.6497 23.3362 18.3503 23.2973 18.0543L23.1647 17.0433L24.2797 16.4237C24.1331 16.1187 23.9547 15.8291 23.7479 15.5591L22.6073 16.1929L21.8321 15.6251C21.5784 15.4392 21.2999 15.284 21.0031 15.1639L20.0658 14.7846V13.5288C19.6899 13.4904 19.3101 13.4904 18.9342 13.5288V14.7846L17.9968 15.1639C17.7001 15.284 17.4216 15.4392 17.1679 15.6251L16.3927 16.193L15.2521 15.5591C15.0453 15.8291 14.8669 16.1187 14.7204 16.4237L15.8353 17.0433L15.7027 18.0543C15.6638 18.3503 15.6638 18.6497 15.7027 18.9457L15.8353 19.9567L14.7204 20.5763C14.8669 20.8813 15.0453 21.1709 15.2521 21.4409ZM18.2716 23.3625C18.2719 23.3626 18.2713 23.3625 18.2716 23.3625V23.3625Z" fill="#3E4567"></path>
  <path fill-rule="evenodd" clip-rule="evenodd" d="M19.5 19C19.7761 19 20 18.7761 20 18.5C20 18.2239 19.7761 18 19.5 18C19.2239 18 19 18.2239 19 18.5C19 18.7761 19.2239 19 19.5 19ZM19.5 20.5C20.6046 20.5 21.5 19.6046 21.5 18.5C21.5 17.3954 20.6046 16.5 19.5 16.5C18.3954 16.5 17.5 17.3954 17.5 18.5C17.5 19.6046 18.3954 20.5 19.5 20.5Z" fill="#3E4567"></path>
  <path fill-rule="evenodd" clip-rule="evenodd" d="M3 8C3 7.58579 3.33579 7.25 3.75 7.25H22.9167C23.3306 7.25 23.7312 7.41013 24.0295 7.70098C24.3285 7.99245 24.5 8.39189 24.5 8.8125V12.0625C24.5 12.4767 24.1642 12.8125 23.75 12.8125C23.3358 12.8125 23 12.4767 23 12.0625V8.8125C23 8.80214 22.996 8.78824 22.9823 8.77498C22.9681 8.76108 22.9448 8.75 22.9167 8.75H4.5V20.2435C4.5 20.2435 4.50344 20.246 4.5067 20.2474C4.51064 20.249 4.5155 20.25 4.52083 20.25H10.9792C11.3934 20.25 11.7292 20.5858 11.7292 21C11.7292 21.4142 11.3934 21.75 10.9792 21.75H4.52083C4.32371 21.75 4.1281 21.7122 3.94499 21.6382C3.76186 21.5643 3.59425 21.4554 3.4522 21.3169C3.3101 21.1783 3.19635 21.0128 3.11839 20.8293C3.0404 20.6457 3 20.4483 3 20.2484V8Z" fill="#3E4567"></path>
  <path fill-rule="evenodd" clip-rule="evenodd" d="M3 4.75C3 3.7835 3.7835 3 4.75 3H10.3009C10.8008 3 11.2768 3.21376 11.6089 3.58736L14.8711 7.25345L13.75 8.25L10.4878 4.58391C10.4403 4.53054 10.3723 4.5 10.3009 4.5H4.75C4.61193 4.5 4.5 4.61193 4.5 4.75V8.75H3V4.75Z" fill="#3E4567"></path>
</svg>
