<?xml version="1.0" encoding="UTF-8"?>
<svg xmlns="http://www.w3.org/2000/svg" width="26" height="26" viewBox="0 0 26 26" fill="none">
  <path fill-rule="evenodd" clip-rule="evenodd" d="M9.44678 6.47824C9.44678 6.00485 9.83053 5.62109 10.3039 5.62109L15.7822 5.62109C16.2556 5.62109 16.6393 6.00485 16.6393 6.47824C16.6393 6.95162 16.2556 7.33538 15.7822 7.33538L10.3039 7.33538C9.83053 7.33538 9.44678 6.95162 9.44678 6.47824Z" fill="#3E4567"></path>
  <path fill-rule="evenodd" clip-rule="evenodd" d="M2.14258 9.95639C2.14258 9.483 2.52633 9.09924 2.99972 9.09924H23.0867C23.5601 9.09924 23.9438 9.483 23.9438 9.95639V21.5506C23.9438 22.1807 23.6765 22.7729 23.2205 23.2006C22.7664 23.6265 22.1616 23.857 21.5415 23.857H4.54487C3.92483 23.857 3.32001 23.6265 2.8659 23.2006C2.40993 22.7729 2.14258 22.1807 2.14258 21.5506V9.95639ZM3.85686 10.8135V21.5506C3.85686 21.6893 3.9151 21.8343 4.03867 21.9502C4.1641 22.0679 4.34531 22.1427 4.54487 22.1427H21.5415C21.7411 22.1427 21.9223 22.0679 22.0477 21.9502C22.1713 21.8343 22.2295 21.6893 22.2295 21.5506V10.8135H3.85686Z" fill="#3E4567"></path>
  <path fill-rule="evenodd" clip-rule="evenodd" d="M3.53061 2.82381C3.61395 2.42697 3.96397 2.14282 4.36946 2.14282H21.7173C22.1228 2.14283 22.4728 2.42697 22.5561 2.82381L23.9257 9.34553C24.023 9.80881 23.7263 10.2632 23.263 10.3605C22.7997 10.4578 22.3453 10.1611 22.248 9.69785L21.0215 3.85711H5.0653L3.83874 9.69785C3.74145 10.1611 3.28702 10.4578 2.82374 10.3605C2.36046 10.2632 2.06376 9.80881 2.16105 9.34553L3.53061 2.82381Z" fill="#3E4567"></path>
  <path fill-rule="evenodd" clip-rule="evenodd" d="M16.4507 14.4908C16.7319 14.7949 16.7133 15.2694 16.4092 15.5507L12.1592 19.4807C11.8553 19.7616 11.3813 19.7434 11.1 19.4399L9.44997 17.6599C9.16838 17.3561 9.18636 16.8816 9.49014 16.6C9.79392 16.3184 10.2684 16.3364 10.55 16.6401L11.6908 17.8708L15.3908 14.4493C15.6949 14.1681 16.1694 14.1867 16.4507 14.4908Z" fill="#3E4567"></path>
</svg>
