<?xml version="1.0" encoding="UTF-8"?>
<svg xmlns="http://www.w3.org/2000/svg" id="a" viewBox="0 0 30 30">
  <defs>
    <style>.b{fill:#3E4567;}</style>
  </defs>
  <path class="b" d="M24.26,23.23h-.58V9.97c0-.36-.29-.66-.66-.66h-2.48c.33-.07,.57-.37,.53-.71l-.31-2.57c-.02-.19-.13-.37-.3-.47-.17-.11-.37-.13-.55-.07l-2.58,.82c-.35,.11-.54,.48-.43,.82,.11,.34,.48,.54,.82,.43l.93-.3c-3.89,4.57-9.09,5.16-9.15,5.17-.36,.04-.62,.36-.59,.72,.03,.34,.32,.59,.65,.59,.02,0,.04,0,.07,0,.2-.02,3.99-.44,7.69-3.37v2.88h-4.38c-.36,0-.66,.29-.66,.66v1.81H7.91c-.36,0-.66,.29-.66,.66v6.87h-1.51c-.36,0-.66,.29-.66,.66s.29,.66,.66,.66H24.26c.36,0,.66-.29,.66-.66s-.29-.66-.66-.66Zm-11.97,0h-3.73v-6.21h3.73v6.21Zm5.04,0h-3.73V14.55h3.73v8.68Zm2.36-15.16l.08,.68c.04,.29,.26,.51,.54,.56h-1.8c.4-.38,.79-.79,1.17-1.24Zm2.68,15.16h-3.73V10.63h3.73v12.6Z"></path>
</svg>
